<mxfile host="app.diagrams.net" modified="2023-07-20T03:02:28.488Z" agent="Mozilla/5.0 (Windows NT 10.0; Win64; x64) AppleWebKit/537.36 (KHTML, like Gecko) Chrome/99.0.4844.51 Safari/537.36" etag="NGuM9w-zQuZVs1VjdazY" version="21.6.2" type="github">
  <diagram id="C5RBs43oDa-KdzZeNtuy" name="Page-1">
    <mxGraphModel dx="1562" dy="1722" grid="1" gridSize="10" guides="1" tooltips="1" connect="1" arrows="1" fold="1" page="0" pageScale="1" pageWidth="827" pageHeight="1169" background="#ffffff" math="0" shadow="0">
      <root>
        <mxCell id="WIyWlLk6GJQsqaUBKTNV-0" />
        <mxCell id="WIyWlLk6GJQsqaUBKTNV-1" parent="WIyWlLk6GJQsqaUBKTNV-0" />
        <mxCell id="6QxSxjAu7csHrg2v1yGP-13" value="" style="rounded=1;whiteSpace=wrap;html=1;" vertex="1" parent="WIyWlLk6GJQsqaUBKTNV-1">
          <mxGeometry x="300" y="-720" width="120" height="160" as="geometry" />
        </mxCell>
        <mxCell id="6QxSxjAu7csHrg2v1yGP-14" value="" style="rounded=0;whiteSpace=wrap;html=1;fillColor=#dae8fc;strokeColor=#6c8ebf;" vertex="1" parent="WIyWlLk6GJQsqaUBKTNV-1">
          <mxGeometry x="310" y="-660" width="40" height="40" as="geometry" />
        </mxCell>
        <mxCell id="6QxSxjAu7csHrg2v1yGP-15" value="" style="rounded=0;whiteSpace=wrap;html=1;fillColor=#ffe6cc;strokeColor=#d79b00;" vertex="1" parent="WIyWlLk6GJQsqaUBKTNV-1">
          <mxGeometry x="370" y="-660" width="40" height="40" as="geometry" />
        </mxCell>
        <mxCell id="6QxSxjAu7csHrg2v1yGP-16" value="" style="rounded=0;whiteSpace=wrap;html=1;fillColor=#dae8fc;strokeColor=#6c8ebf;" vertex="1" parent="WIyWlLk6GJQsqaUBKTNV-1">
          <mxGeometry x="310" y="-610" width="40" height="40" as="geometry" />
        </mxCell>
        <mxCell id="6QxSxjAu7csHrg2v1yGP-17" value="" style="rounded=0;whiteSpace=wrap;html=1;fillColor=#ffe6cc;strokeColor=#d79b00;" vertex="1" parent="WIyWlLk6GJQsqaUBKTNV-1">
          <mxGeometry x="370" y="-610" width="40" height="40" as="geometry" />
        </mxCell>
        <mxCell id="6QxSxjAu7csHrg2v1yGP-18" value="&lt;font style=&quot;font-size: 14px;&quot;&gt;一次checkpoint&lt;br&gt;产生的文件&lt;/font&gt;" style="text;html=1;align=center;verticalAlign=middle;resizable=0;points=[];autosize=1;strokeColor=none;fillColor=none;" vertex="1" parent="WIyWlLk6GJQsqaUBKTNV-1">
          <mxGeometry x="300" y="-720" width="120" height="50" as="geometry" />
        </mxCell>
        <mxCell id="6QxSxjAu7csHrg2v1yGP-0" value="" style="endArrow=none;dashed=1;html=1;rounded=0;" edge="1" parent="WIyWlLk6GJQsqaUBKTNV-1">
          <mxGeometry width="50" height="50" relative="1" as="geometry">
            <mxPoint x="360" y="-320" as="sourcePoint" />
            <mxPoint x="360" y="-800" as="targetPoint" />
          </mxGeometry>
        </mxCell>
        <mxCell id="6QxSxjAu7csHrg2v1yGP-1" value="" style="rounded=1;whiteSpace=wrap;html=1;" vertex="1" parent="WIyWlLk6GJQsqaUBKTNV-1">
          <mxGeometry x="160" y="-720" width="120" height="160" as="geometry" />
        </mxCell>
        <mxCell id="6QxSxjAu7csHrg2v1yGP-2" value="&lt;font style=&quot;font-size: 14px;&quot;&gt;分区1&lt;/font&gt;" style="text;html=1;align=center;verticalAlign=middle;resizable=0;points=[];autosize=1;strokeColor=none;fillColor=none;" vertex="1" parent="WIyWlLk6GJQsqaUBKTNV-1">
          <mxGeometry x="250" y="-780" width="60" height="30" as="geometry" />
        </mxCell>
        <mxCell id="6QxSxjAu7csHrg2v1yGP-3" value="&lt;font style=&quot;font-size: 14px;&quot;&gt;分区2&lt;/font&gt;" style="text;html=1;align=center;verticalAlign=middle;resizable=0;points=[];autosize=1;strokeColor=none;fillColor=none;" vertex="1" parent="WIyWlLk6GJQsqaUBKTNV-1">
          <mxGeometry x="430" y="-780" width="60" height="30" as="geometry" />
        </mxCell>
        <mxCell id="6QxSxjAu7csHrg2v1yGP-8" value="" style="rounded=0;whiteSpace=wrap;html=1;fillColor=#dae8fc;strokeColor=#6c8ebf;" vertex="1" parent="WIyWlLk6GJQsqaUBKTNV-1">
          <mxGeometry x="180" y="-660" width="40" height="40" as="geometry" />
        </mxCell>
        <mxCell id="6QxSxjAu7csHrg2v1yGP-9" value="" style="rounded=0;whiteSpace=wrap;html=1;fillColor=#dae8fc;strokeColor=#6c8ebf;" vertex="1" parent="WIyWlLk6GJQsqaUBKTNV-1">
          <mxGeometry x="230" y="-660" width="40" height="40" as="geometry" />
        </mxCell>
        <mxCell id="6QxSxjAu7csHrg2v1yGP-10" value="" style="rounded=0;whiteSpace=wrap;html=1;fillColor=#dae8fc;strokeColor=#6c8ebf;" vertex="1" parent="WIyWlLk6GJQsqaUBKTNV-1">
          <mxGeometry x="180" y="-610" width="40" height="40" as="geometry" />
        </mxCell>
        <mxCell id="6QxSxjAu7csHrg2v1yGP-11" value="" style="rounded=0;whiteSpace=wrap;html=1;fillColor=#dae8fc;strokeColor=#6c8ebf;" vertex="1" parent="WIyWlLk6GJQsqaUBKTNV-1">
          <mxGeometry x="230" y="-610" width="40" height="40" as="geometry" />
        </mxCell>
        <mxCell id="6QxSxjAu7csHrg2v1yGP-12" value="&lt;font style=&quot;font-size: 14px;&quot;&gt;一次checkpoint&lt;br&gt;产生的文件&lt;/font&gt;" style="text;html=1;align=center;verticalAlign=middle;resizable=0;points=[];autosize=1;strokeColor=none;fillColor=none;" vertex="1" parent="WIyWlLk6GJQsqaUBKTNV-1">
          <mxGeometry x="160" y="-720" width="120" height="50" as="geometry" />
        </mxCell>
        <mxCell id="6QxSxjAu7csHrg2v1yGP-19" value="" style="rounded=1;whiteSpace=wrap;html=1;" vertex="1" parent="WIyWlLk6GJQsqaUBKTNV-1">
          <mxGeometry x="430" y="-720" width="120" height="160" as="geometry" />
        </mxCell>
        <mxCell id="6QxSxjAu7csHrg2v1yGP-20" value="" style="rounded=0;whiteSpace=wrap;html=1;fillColor=#ffe6cc;strokeColor=#d79b00;" vertex="1" parent="WIyWlLk6GJQsqaUBKTNV-1">
          <mxGeometry x="450" y="-660" width="40" height="40" as="geometry" />
        </mxCell>
        <mxCell id="6QxSxjAu7csHrg2v1yGP-21" value="" style="rounded=0;whiteSpace=wrap;html=1;fillColor=#ffe6cc;strokeColor=#d79b00;" vertex="1" parent="WIyWlLk6GJQsqaUBKTNV-1">
          <mxGeometry x="500" y="-660" width="40" height="40" as="geometry" />
        </mxCell>
        <mxCell id="6QxSxjAu7csHrg2v1yGP-22" value="" style="rounded=0;whiteSpace=wrap;html=1;fillColor=#ffe6cc;strokeColor=#d79b00;" vertex="1" parent="WIyWlLk6GJQsqaUBKTNV-1">
          <mxGeometry x="450" y="-610" width="40" height="40" as="geometry" />
        </mxCell>
        <mxCell id="6QxSxjAu7csHrg2v1yGP-23" value="" style="rounded=0;whiteSpace=wrap;html=1;fillColor=#ffe6cc;strokeColor=#d79b00;" vertex="1" parent="WIyWlLk6GJQsqaUBKTNV-1">
          <mxGeometry x="500" y="-610" width="40" height="40" as="geometry" />
        </mxCell>
        <mxCell id="6QxSxjAu7csHrg2v1yGP-24" value="&lt;font style=&quot;font-size: 14px;&quot;&gt;一次checkpoint&lt;br&gt;产生的文件&lt;/font&gt;" style="text;html=1;align=center;verticalAlign=middle;resizable=0;points=[];autosize=1;strokeColor=none;fillColor=none;" vertex="1" parent="WIyWlLk6GJQsqaUBKTNV-1">
          <mxGeometry x="430" y="-720" width="120" height="50" as="geometry" />
        </mxCell>
        <mxCell id="6QxSxjAu7csHrg2v1yGP-25" value="" style="shape=flexArrow;endArrow=classic;html=1;rounded=0;" edge="1" parent="WIyWlLk6GJQsqaUBKTNV-1">
          <mxGeometry width="50" height="50" relative="1" as="geometry">
            <mxPoint x="360" y="-510" as="sourcePoint" />
            <mxPoint x="360" y="-450" as="targetPoint" />
          </mxGeometry>
        </mxCell>
        <mxCell id="6QxSxjAu7csHrg2v1yGP-26" value="Rewrite" style="text;html=1;align=center;verticalAlign=middle;resizable=0;points=[];autosize=1;strokeColor=none;fillColor=none;shadow=0;" vertex="1" parent="WIyWlLk6GJQsqaUBKTNV-1">
          <mxGeometry x="380" y="-502" width="60" height="30" as="geometry" />
        </mxCell>
        <mxCell id="6QxSxjAu7csHrg2v1yGP-27" value="合并后的大文件" style="rounded=0;whiteSpace=wrap;html=1;fillColor=#dae8fc;strokeColor=#6c8ebf;" vertex="1" parent="WIyWlLk6GJQsqaUBKTNV-1">
          <mxGeometry x="230" y="-430" width="120" height="60" as="geometry" />
        </mxCell>
        <mxCell id="6QxSxjAu7csHrg2v1yGP-28" value="合并后的大文件" style="rounded=0;whiteSpace=wrap;html=1;fillColor=#ffe6cc;strokeColor=#d79b00;" vertex="1" parent="WIyWlLk6GJQsqaUBKTNV-1">
          <mxGeometry x="370" y="-430" width="120" height="60" as="geometry" />
        </mxCell>
      </root>
    </mxGraphModel>
  </diagram>
</mxfile>
